<svg width="1290" height="201" viewBox="0 0 1290 201" fill="none" xmlns="http://www.w3.org/2000/svg">
<path d="M266.09 154.28V56.9586H277.881L331.217 133.433H331.845V56.9586H343.895V154.28H332.141L278.768 78.1009H278.176V154.28H266.09Z" fill="#8BC23E"/>
<path d="M418.596 154.28H407.507V142.97H407.212C405.159 147.017 401.963 150.372 398.02 152.619C394.078 154.866 389.563 155.906 385.034 155.611C369.695 155.611 360.75 145.779 360.75 129.737V84.089H372.541V127.593C372.541 138.941 377.901 145.187 388.768 145.187C399.634 145.187 407.249 137.425 407.249 125.376V84.089H419.04V154.317L418.596 154.28Z" fill="#8BC23E"/>
<path d="M449.311 67.2339V84.2365H462.877V93.9205H449.311V135.651C449.311 142.045 451.973 144.891 457.924 144.891C459.587 144.891 461.213 144.891 462.877 144.596V154.427C460.434 154.839 457.961 155.037 455.484 155.019C442.658 155.019 437.594 149.807 437.594 136.242V93.7727H427.171V84.0886H437.594V67.2339H449.311Z" fill="#8BC23E"/>
<path d="M475.37 84.0889H486.459V95.5471H486.755C487.774 91.8432 490 88.5852 493.079 86.2888C496.159 83.9924 499.917 82.789 503.757 82.8691C505.357 82.8717 506.953 83.0202 508.525 83.3127V94.8079C506.469 94.3186 504.354 94.1195 502.242 94.2165C493.149 94.2165 487.198 100.759 487.198 110.591V154.28H475.407L475.37 84.0889Z" fill="#8BC23E"/>
<path d="M517.136 64.9792C517.136 63.5171 517.57 62.0879 518.382 60.8722C519.194 59.6565 520.349 58.709 521.7 58.1495C523.05 57.59 524.537 57.4436 525.971 57.7288C527.405 58.0141 528.722 58.7181 529.756 59.752C530.79 60.7858 531.494 62.103 531.779 63.537C532.064 64.971 531.918 66.4574 531.358 67.8082C530.799 69.159 529.851 70.3135 528.636 71.1258C527.42 71.9381 525.991 72.3716 524.529 72.3716C522.613 72.3046 520.799 71.4962 519.468 70.1171C518.137 68.7379 517.394 66.8958 517.395 64.9792M518.873 84.0886H530.627V154.317H518.873V84.0886Z" fill="#8BC23E"/>
<path d="M561.824 67.2339V84.2365H575.389V93.9205H561.824V135.651C561.824 142.045 564.522 144.891 570.473 144.891C572.136 144.891 573.763 144.891 575.389 144.596V154.428C572.947 154.842 570.473 155.04 567.997 155.019C555.171 155.019 550.107 149.807 550.107 136.242V93.7727H539.647V84.0886H550.07V67.2339H561.824Z" fill="#8BC23E"/>
<path d="M586.884 64.9792C586.884 63.5171 587.318 62.0879 588.13 60.8722C588.942 59.6565 590.097 58.709 591.448 58.1495C592.799 57.59 594.285 57.4436 595.719 57.7288C597.153 58.0141 598.47 58.7181 599.504 59.752C600.538 60.7858 601.242 62.103 601.527 63.537C601.812 64.971 601.666 66.4574 601.106 67.8082C600.547 69.159 599.599 70.3135 598.384 71.1258C597.168 71.9381 595.739 72.3716 594.277 72.3716C592.316 72.3716 590.436 71.5928 589.049 70.2064C587.663 68.8201 586.884 66.9398 586.884 64.9792ZM588.363 84.0886H600.154V154.317H588.363V84.0886Z" fill="#8BC23E"/>
<path d="M612.536 119.24C612.536 97.0627 625.658 82.8693 645.026 82.8693C664.394 82.8693 677.516 96.73 677.516 119.24C677.516 141.75 664.394 155.611 645.026 155.611C625.658 155.611 612.536 141.454 612.536 119.24ZM665.577 119.24C665.577 102.718 657.556 93.3665 645.026 93.3665C632.496 93.3665 624.438 102.755 624.438 119.24C624.438 135.725 632.643 145.113 645.026 145.113C657.408 145.113 665.577 135.725 665.577 119.24Z" fill="#8BC23E"/>
<path d="M689.306 84.0885H700.395V95.1771H700.691C702.802 91.1969 706.018 87.9111 709.953 85.7146C713.887 83.518 718.371 82.5042 722.868 82.7948C738.244 82.7948 747.189 92.8116 747.189 108.668V154.28H735.546V110.886C735.546 99.5387 730.186 93.2921 719.43 93.2921C708.674 93.2921 700.949 101.017 700.949 112.956V154.28H689.195L689.306 84.0885Z" fill="#8BC23E"/>
<path d="M759.201 134.468C759.201 122.382 768.442 114.915 784.705 113.88L804.813 112.698V106.894C804.813 98.2453 799.157 93.1815 789.473 93.1815C780.381 93.1815 774.689 97.5061 773.21 104.27H761.752C762.491 92.1835 772.84 82.7952 789.621 82.7952C806.402 82.7952 816.456 91.74 816.456 105.749V154.28H805.367V142.23H805.071C802.851 146.252 799.589 149.602 795.629 151.93C791.669 154.258 787.155 155.478 782.561 155.463C768.701 155.463 759.312 147.146 759.312 134.468M804.924 127.593V121.975L786.147 123.158C776.758 123.749 771.362 127.926 771.362 134.505C771.362 141.084 777.017 145.594 785.518 145.594C787.978 145.77 790.448 145.444 792.778 144.638C795.108 143.831 797.25 142.56 799.075 140.901C800.9 139.243 802.369 137.231 803.393 134.988C804.417 132.745 804.976 130.317 805.034 127.852" fill="#8BC23E"/>
<path d="M843.882 56.9586H832.091V154.317H843.882V56.9586Z" fill="#8BC23E"/>
<path d="M861.476 154.28V56.9586H920.505V67.8255H873.563V101.387H916.624V112.106H873.563V154.28H861.476Z" fill="white"/>
<path d="M931.815 64.9792C931.815 63.5171 932.249 62.0879 933.061 60.8722C933.873 59.6565 935.028 58.709 936.379 58.1495C937.729 57.59 939.216 57.4436 940.65 57.7288C942.084 58.0141 943.401 58.7181 944.435 59.752C945.469 60.7858 946.173 62.103 946.458 63.537C946.743 64.971 946.597 66.4574 946.037 67.8082C945.478 69.159 944.53 70.3135 943.315 71.1258C942.099 71.9381 940.67 72.3716 939.208 72.3716C937.247 72.3716 935.367 71.5928 933.98 70.2064C932.594 68.8201 931.815 66.9398 931.815 64.9792ZM933.331 84.0886H945.085V154.317H933.331V84.0886Z" fill="white"/>
<path d="M976.244 67.2339V84.2365H989.809V93.9205H976.244V135.651C976.244 142.045 978.942 144.891 984.893 144.891C986.557 144.891 988.183 144.891 989.809 144.596V154.428C987.367 154.842 984.894 155.04 982.417 155.019C969.591 155.019 964.527 149.807 964.527 136.242V93.7727H954.067V84.0886H964.527V67.2339H976.244Z" fill="white"/>
<path d="M1002.49 84.0891H1013.58V95.1777H1013.91C1016.01 91.1883 1019.22 87.8946 1023.16 85.6966C1027.1 83.4986 1031.59 82.4907 1036.08 82.7954C1051.46 82.7954 1060.41 92.8122 1060.41 108.669V154.428H1048.62V110.887C1048.62 99.5393 1043.26 93.2927 1032.54 93.2927C1021.82 93.2927 1014.06 101.018 1014.06 112.957V154.28H1002.26V84.0521L1002.49 84.0891Z" fill="white"/>
<path d="M1133.37 134.173C1131.45 146.37 1119.51 155.463 1104.17 155.463C1084.02 155.463 1071.79 141.454 1071.79 119.388C1071.79 97.3214 1084.17 82.8693 1103.58 82.8693C1122.98 82.8693 1134.11 96.5822 1134.11 117.909V122.382H1083.73V122.973C1083.73 136.39 1091.64 145.15 1104.32 145.15C1113.26 145.15 1119.8 140.678 1121.76 134.062L1133.37 134.173ZM1083.88 113.141H1122.06C1121.76 101.35 1114.44 93.0338 1103.39 93.0338C1092.34 93.0338 1084.62 101.498 1083.88 113.141Z" fill="white"/>
<path d="M1170.92 82.8693C1185.41 82.8693 1196.13 91.5184 1196.58 103.457H1185.49C1184.71 96.7301 1179.2 92.5533 1170.7 92.5533C1162.2 92.5533 1156.55 96.8779 1156.55 103.014C1156.55 107.93 1160.24 111.071 1168.19 113.141L1179.06 115.839C1193.21 119.536 1198.28 124.489 1198.28 134.912C1198.28 147.146 1186.82 155.796 1170.41 155.796C1155.07 155.796 1144.31 147.442 1143.13 135.06H1154.92C1156.25 142.452 1161.76 146.148 1171.29 146.148C1180.83 146.148 1186.48 142.23 1186.48 135.799C1186.48 130.735 1183.49 128.037 1175.73 125.967L1163.38 122.825C1151 119.684 1144.9 113.289 1144.9 103.753C1144.9 91.5184 1155.62 82.8693 1170.96 82.8693" fill="white"/>
<path d="M1235.2 82.8691C1249.65 82.8691 1260.37 91.5182 1260.81 103.457H1249.73C1248.99 96.7299 1243.44 92.5532 1234.94 92.5532C1226.44 92.5532 1220.75 96.8777 1220.75 103.013C1220.75 107.929 1224.44 111.071 1232.39 113.141L1243.26 115.839C1257.45 119.536 1262.51 124.488 1262.51 134.912C1262.51 147.146 1251.02 155.795 1234.61 155.795C1219.27 155.795 1208.55 147.442 1207.33 135.06H1219.12C1220.45 142.452 1226 146.148 1235.53 146.148C1245.07 146.148 1250.87 142.156 1250.87 135.725C1250.87 130.661 1248.03 127.963 1240.15 125.893L1227.77 122.751C1215.39 119.609 1209.29 113.215 1209.29 103.679C1209.29 91.4443 1220.01 82.7952 1235.38 82.7952" fill="white"/>
<path d="M1267.25 71.263V58.1414H1262.48V56.9586H1273.35V58.1414H1268.73V71.263H1267.25Z" fill="white"/>
<path d="M1287.65 71.2629V59.4719L1282.59 71.2629H1281.4L1276.34 59.4719V71.2629H1275.12V56.8107H1276.63L1281.99 69.4517L1287.35 56.8107H1289.02V71.2629H1287.65Z" fill="white"/>
<path d="M106.417 81.3168V152.654H93V55.1476H103.756C104.265 55.0875 104.78 55.1867 105.23 55.4317C105.68 55.6766 106.043 56.0552 106.269 56.5152C120.722 79.3208 135.506 102.126 150.291 124.932C150.507 125.298 150.812 125.603 151.178 125.819V98.2454H204.81V111.071H164.854V152.654H153.766C153.275 152.721 152.776 152.628 152.343 152.388C151.91 152.148 151.566 151.775 151.363 151.323C136.763 128.185 122.015 105.231 107.378 82.1299C107.182 81.7518 106.933 81.4033 106.639 81.095L106.417 81.3168Z" fill="white"/>
<path d="M151.289 67.6779V55.1477H212.277V67.53H151.289V67.6779Z" fill="#8BC23E"/>
</svg>
